{
  "asset": {
    "generator": "Amazon Sumerian",
    "version": "2.0"
  },
  "cameras": [
    {
      "name": "Default Camera",
      "type": "perspective",
      "perspective": {
        "aspectRatio": 1,
        "yfov": 0.7853981633974483,
        "zfar": 1000,
        "znear": 1
      }
    }
  ],
  "nodes": [
    {
      "name": "Default Camera",
      "camera": 0,
      "rotation": [
        -0.1938805558929864,
        -0.2484476241383645,
        -0.050828420705204415,
        0.9476816869367284
      ],
      "scale": [
        1,
        1,
        1
      ],
      "translation": [
        -0.9023784843895196,
        0.785461010543237,
        1.602736432426514
      ]
    },
    {
      "name": "Key - Directional",
      "extensions": {
        "KHR_lights_punctual": {
          "light": 0
        }
      },
      "rotation": [
        -0.0948595598902012,
        0.11955889871169392,
        -0.14019607206387738,
        0.9782905473396666
      ],
      "scale": [
        0.9999998569971704,
        0.9999998569971704,
        0.9999998569971704
      ],
      "translation": [
        3.840765953063965,
        5.725151062011719,
        6.723899841308594
      ]
    },
    {
      "name": "Rim - Directional",
      "extensions": {
        "KHR_lights_punctual": {
          "light": 1
        }
      },
      "rotation": [
        -0.007935453473895075,
        0.936498758480699,
        0.34801447925863915,
        0.042344139719820297
      ],
      "scale": [
        1.0000002646568553,
        1.0000002646568553,
        1.0000002646568553
      ],
      "translation": [
        4.528846740722656,
        9.009954452514648,
        -9.487277030944824
      ]
    },
    {
      "name": "Default  Dynamic Lights",
      "rotation": [
        0,
        0,
        0,
        1
      ],
      "scale": [
        1,
        1,
        1
      ],
      "translation": [
        0,
        0,
        0
      ],
      "children": [
        1,
        2
      ]
    },
    {
      "name": "Quad",
      "mesh": 0,
      "rotation": [
        0,
        0,
        0,
        1
      ],
      "scale": [
        1,
        1,
        1
      ],
      "translation": [
        0,
        0,
        0
      ]
    }
  ],
  "extensions": {
    "KHR_lights_punctual": {
      "lights": [
        {
          "name": "Key - Directional",
          "color": [
            0.92477783203125,
            0.8875688601181507,
            0.856960791015625
          ],
          "intensity": 1,
          "type": "directional"
        },
        {
          "name": "Rim - Directional",
          "color": [
            1,
            1,
            1
          ],
          "intensity": 1,
          "type": "directional"
        }
      ]
    },
    "EXT_lights_image_based": {
      "lights": [
        {
          "name": "Default Image Based Lighting",
          "intensity": 0.555,
          "rotation": [
            0,
            0.9945218953682733,
            0,
            -0.10452846326765355
          ],
          "specularImageSize": 256,
          "specularImages": [
            [
              3,
              4,
              5,
              6,
              7,
              8
            ],
            [
              9,
              10,
              11,
              12,
              13,
              14
            ],
            [
              15,
              16,
              17,
              18,
              19,
              20
            ],
            [
              21,
              22,
              23,
              24,
              25,
              26
            ],
            [
              27,
              28,
              29,
              30,
              31,
              32
            ]
          ],
          "irradianceCoefficients": [
            [
              6.767630577087402,
              7.795283317565918,
              8.821765899658203
            ],
            [
              -5.275145530700684,
              -6.101497650146484,
              -7.0443243980407715
            ],
            [
              3.7209255695343018,
              4.367359638214111,
              5.267691135406494
            ],
            [
              -0.19024552404880524,
              -0.18511290848255157,
              -0.08477426320314407
            ],
            [
              -1.499794840812683,
              -1.7414934635162354,
              -2.011887311935425
            ],
            [
              -8.791145324707031,
              -10.176469802856445,
              -11.742106437683105
            ],
            [
              5.856884479522705,
              6.700818061828613,
              7.478517055511475
            ],
            [
              4.250422477722168,
              4.859610080718994,
              5.361872673034668
            ],
            [
              -3.5116090774536133,
              -4.09002161026001,
              -4.778421401977539
            ]
          ]
        }
      ]
    }
  },
  "extensionsUsed": [
    "KHR_lights_punctual",
    "EXT_lights_image_based"
  ],
  "buffers": [
    {
      "byteLength": 136,
      "uri": "Quad.bin"
    }
  ],
  "bufferViews": [
    {
      "buffer": 0,
      "byteOffset": 0,
      "byteLength": 8,
      "target": 34963
    },
    {
      "buffer": 0,
      "byteOffset": 8,
      "byteLength": 48,
      "byteStride": 12,
      "target": 34962
    },
    {
      "buffer": 0,
      "byteOffset": 56,
      "byteLength": 48,
      "byteStride": 12,
      "target": 34962
    },
    {
      "buffer": 0,
      "byteOffset": 104,
      "byteLength": 32,
      "byteStride": 8,
      "target": 34962
    }
  ],
  "accessors": [
    {
      "bufferView": 0,
      "byteOffset": 0,
      "componentType": 5121,
      "count": 6,
      "max": [
        3
      ],
      "min": [
        0
      ],
      "type": "SCALAR"
    },
    {
      "bufferView": 1,
      "byteOffset": 0,
      "componentType": 5126,
      "count": 4,
      "max": [
        0.5,
        0.5,
        0
      ],
      "min": [
        -0.5,
        -0.5,
        0
      ],
      "type": "VEC3"
    },
    {
      "bufferView": 2,
      "byteOffset": 0,
      "componentType": 5126,
      "count": 4,
      "max": [
        0,
        0,
        1
      ],
      "min": [
        0,
        0,
        1
      ],
      "type": "VEC3"
    },
    {
      "bufferView": 3,
      "byteOffset": 0,
      "componentType": 5126,
      "count": 4,
      "max": [
        1,
        1
      ],
      "min": [
        0,
        0
      ],
      "type": "VEC2"
    }
  ],
  "meshes": [
    {
      "name": "Quad",
      "primitives": [
        {
          "attributes": {
            "POSITION": 1,
            "NORMAL": 2,
            "TEXCOORD_0": 3
          },
          "indices": 0,
          "mode": 4,
          "material": 0
        }
      ]
    }
  ],
  "materials": [
    {
      "name": "Default Material 2",
      "pbrMetallicRoughness": {
        "baseColorFactor": [
          0.8,
          0.8,
          0.8,
          1
        ],
        "roughnessFactor": 0.936
      },
      "emissiveFactor": [
        0,
        0,
        0
      ]
    },
    {
      "name": "Default Material",
      "pbrMetallicRoughness": {
        "baseColorFactor": [
          0.8,
          0.8,
          0.8,
          1
        ],
        "roughnessFactor": 0.936
      },
      "emissiveFactor": [
        0,
        0,
        0
      ]
    }
  ],
  "scenes": [
    {
      "name": "Test1",
      "nodes": [
        0,
        3,
        4
      ],
      "extensions": {
        "EXT_lights_image_based": {
          "light": 0
        }
      }
    }
  ],
  "scene": 0,
  "images": [
    {
      "uri": "HDRI_Haven_DefaultStudio.jpg"
    },
    {
      "uri": "default_studio_skysphere.jpg"
    },
    {
      "uri": "default_studio_HDRI-1.hdr"
    },
    {
      "uri": "SpecularMip_Level0_FaceIdx0.png"
    },
    {
      "uri": "SpecularMip_Level0_FaceIdx1.png"
    },
    {
      "uri": "SpecularMip_Level0_FaceIdx2.png"
    },
    {
      "uri": "SpecularMip_Level0_FaceIdx3.png"
    },
    {
      "uri": "SpecularMip_Level0_FaceIdx4.png"
    },
    {
      "uri": "SpecularMip_Level0_FaceIdx5.png"
    },
    {
      "uri": "SpecularMip_Level1_FaceIdx0.png"
    },
    {
      "uri": "SpecularMip_Level1_FaceIdx1.png"
    },
    {
      "uri": "SpecularMip_Level1_FaceIdx2.png"
    },
    {
      "uri": "SpecularMip_Level1_FaceIdx3.png"
    },
    {
      "uri": "SpecularMip_Level1_FaceIdx4.png"
    },
    {
      "uri": "SpecularMip_Level1_FaceIdx5.png"
    },
    {
      "uri": "SpecularMip_Level2_FaceIdx0.png"
    },
    {
      "uri": "SpecularMip_Level2_FaceIdx1.png"
    },
    {
      "uri": "SpecularMip_Level2_FaceIdx2.png"
    },
    {
      "uri": "SpecularMip_Level2_FaceIdx3.png"
    },
    {
      "uri": "SpecularMip_Level2_FaceIdx4.png"
    },
    {
      "uri": "SpecularMip_Level2_FaceIdx5.png"
    },
    {
      "uri": "SpecularMip_Level3_FaceIdx0.png"
    },
    {
      "uri": "SpecularMip_Level3_FaceIdx1.png"
    },
    {
      "uri": "SpecularMip_Level3_FaceIdx2.png"
    },
    {
      "uri": "SpecularMip_Level3_FaceIdx3.png"
    },
    {
      "uri": "SpecularMip_Level3_FaceIdx4.png"
    },
    {
      "uri": "SpecularMip_Level3_FaceIdx5.png"
    },
    {
      "uri": "SpecularMip_Level4_FaceIdx0.png"
    },
    {
      "uri": "SpecularMip_Level4_FaceIdx1.png"
    },
    {
      "uri": "SpecularMip_Level4_FaceIdx2.png"
    },
    {
      "uri": "SpecularMip_Level4_FaceIdx3.png"
    },
    {
      "uri": "SpecularMip_Level4_FaceIdx4.png"
    },
    {
      "uri": "SpecularMip_Level4_FaceIdx5.png"
    }
  ],
  "samplers": [
    {
      "name": "HDRI_Haven_DefaultStudio.jpg",
      "magFilter": 9729,
      "minFilter": 9987,
      "wrapS": 10497,
      "wrapT": 10497
    },
    {
      "name": "default_studio_skysphere.jpg",
      "magFilter": 9729,
      "minFilter": 9987,
      "wrapS": 10497,
      "wrapT": 10497
    },
    {
      "name": "default_studio_HDRI.hdr",
      "magFilter": 9729,
      "minFilter": 9987,
      "wrapS": 10497,
      "wrapT": 10497
    }
  ],
  "textures": [
    {
      "name": "HDRI_Haven_DefaultStudio.jpg",
      "source": 0,
      "sampler": 0
    },
    {
      "name": "default_studio_skysphere.jpg",
      "source": 1,
      "sampler": 1
    },
    {
      "name": "default_studio_HDRI.hdr",
      "source": 2,
      "sampler": 2
    }
  ]
}